<mxfile host="app.diagrams.net" modified="2022-09-21T10:41:30.706Z" agent="5.0 (Windows NT 10.0; Win64; x64) AppleWebKit/537.36 (KHTML, like Gecko) Chrome/104.0.5112.102 Safari/537.36 OPR/90.0.4480.100" etag="n9nJR-mwcR4zCLAloPzt" version="20.3.3" type="github">
  <diagram id="eMbX7Qe7R7j_XgoHGXNY" name="PÃ¡gina-1">
    <mxGraphModel dx="1381" dy="795" grid="1" gridSize="10" guides="1" tooltips="1" connect="1" arrows="1" fold="1" page="1" pageScale="1" pageWidth="827" pageHeight="1169" math="0" shadow="0">
      <root>
        <mxCell id="0" />
        <mxCell id="1" parent="0" />
      </root>
    </mxGraphModel>
  </diagram>
</mxfile>
